<mxfile host="Electron" agent="Mozilla/5.0 (Windows NT 10.0) AppleWebKit/537.36 (KHTML, like Gecko) draw.io/26.0.4 Chrome/128.0.6613.186 Electron/32.2.5 Safari/537.36" version="26.0.4">
  <diagram name="Page-1" id="9iGgYaHyI3RnL9RrDE2J">
    <mxGraphModel dx="2924" dy="1196" grid="1" gridSize="10" guides="1" tooltips="1" connect="1" arrows="1" fold="1" page="1" pageScale="1" pageWidth="850" pageHeight="1100" math="0" shadow="0">
      <root>
        <mxCell id="0" />
        <mxCell id="1" parent="0" />
        <mxCell id="j5zyZETpQFfi42s4NJHR-3" value="&lt;div&gt;&lt;span style=&quot;background-color: transparent; color: light-dark(rgb(0, 0, 0), rgb(255, 255, 255));&quot;&gt;eBPF&lt;/span&gt;&lt;br&gt;&lt;/div&gt;&lt;div&gt;DTrace&lt;/div&gt;&lt;div&gt;Debugger&lt;/div&gt;&lt;div&gt;uProbe&lt;/div&gt;&lt;div&gt;kProbe&lt;/div&gt;&lt;div&gt;ptrace&lt;/div&gt;&lt;div&gt;user_events&lt;/div&gt;&lt;div&gt;ETC&lt;/div&gt;&lt;div&gt;syslog&lt;/div&gt;&lt;div&gt;etc&lt;/div&gt;" style="rounded=1;whiteSpace=wrap;html=1;fillColor=#dae8fc;strokeColor=#6c8ebf;opacity=50;" vertex="1" parent="1">
          <mxGeometry x="20" y="230" width="120" height="270" as="geometry" />
        </mxCell>
        <mxCell id="j5zyZETpQFfi42s4NJHR-4" value="Windows&lt;div&gt;Linux&lt;/div&gt;" style="rounded=1;whiteSpace=wrap;html=1;fillColor=#d5e8d4;strokeColor=#82b366;opacity=50;" vertex="1" parent="1">
          <mxGeometry x="150" y="230" width="120" height="270" as="geometry" />
        </mxCell>
        <mxCell id="j5zyZETpQFfi42s4NJHR-5" value="C#&lt;div&gt;C/C++&lt;/div&gt;&lt;div&gt;Rust&lt;/div&gt;&lt;div&gt;Python&lt;/div&gt;&lt;div&gt;etc&lt;/div&gt;" style="rounded=1;whiteSpace=wrap;html=1;fillColor=#ffe6cc;strokeColor=#d79b00;opacity=50;" vertex="1" parent="1">
          <mxGeometry x="280" y="230" width="120" height="270" as="geometry" />
        </mxCell>
        <mxCell id="j5zyZETpQFfi42s4NJHR-6" value="Kusto&lt;div&gt;SQL&lt;/div&gt;&lt;div&gt;Splunk&lt;/div&gt;&lt;div&gt;Snowflake&lt;/div&gt;&lt;div&gt;Promethesus&lt;/div&gt;&lt;div&gt;etc&lt;/div&gt;&lt;div&gt;&lt;br&gt;&lt;/div&gt;" style="rounded=1;whiteSpace=wrap;html=1;fillColor=#fff2cc;strokeColor=#d6b656;opacity=50;" vertex="1" parent="1">
          <mxGeometry x="410" y="230" width="120" height="270" as="geometry" />
        </mxCell>
        <mxCell id="j5zyZETpQFfi42s4NJHR-8" value="Kusto&lt;div&gt;Graphana&lt;/div&gt;&lt;div&gt;PowerBI&lt;/div&gt;&lt;div&gt;etc&lt;/div&gt;" style="rounded=1;whiteSpace=wrap;html=1;fillColor=#f8cecc;strokeColor=#b85450;opacity=50;" vertex="1" parent="1">
          <mxGeometry x="540" y="230" width="120" height="270" as="geometry" />
        </mxCell>
        <mxCell id="j5zyZETpQFfi42s4NJHR-9" value="Azure&lt;div&gt;AWS&lt;/div&gt;&lt;div&gt;GoogleCloud&lt;/div&gt;&lt;div&gt;etc&lt;/div&gt;" style="rounded=1;whiteSpace=wrap;html=1;fillColor=#e1d5e7;strokeColor=#9673a6;opacity=50;" vertex="1" parent="1">
          <mxGeometry x="670" y="230" width="120" height="270" as="geometry" />
        </mxCell>
        <mxCell id="j5zyZETpQFfi42s4NJHR-10" value="Solution Requries Cooporation Across All" style="rounded=1;whiteSpace=wrap;html=1;fillColor=#60a917;fontColor=#ffffff;strokeColor=#2D7600;opacity=80;" vertex="1" parent="1">
          <mxGeometry x="-40" y="260" width="900" height="30" as="geometry" />
        </mxCell>
        <mxCell id="j5zyZETpQFfi42s4NJHR-11" value="Probe Tech" style="rounded=1;whiteSpace=wrap;html=1;fillColor=#dae8fc;strokeColor=#6c8ebf;" vertex="1" parent="1">
          <mxGeometry x="20" y="190" width="120" height="60" as="geometry" />
        </mxCell>
        <mxCell id="j5zyZETpQFfi42s4NJHR-12" value="OS" style="rounded=1;whiteSpace=wrap;html=1;fillColor=#d5e8d4;strokeColor=#82b366;" vertex="1" parent="1">
          <mxGeometry x="150" y="190" width="120" height="60" as="geometry" />
        </mxCell>
        <mxCell id="j5zyZETpQFfi42s4NJHR-13" value="Language" style="rounded=1;whiteSpace=wrap;html=1;fillColor=#ffe6cc;strokeColor=#d79b00;" vertex="1" parent="1">
          <mxGeometry x="280" y="190" width="120" height="60" as="geometry" />
        </mxCell>
        <mxCell id="j5zyZETpQFfi42s4NJHR-14" value="Database" style="rounded=1;whiteSpace=wrap;html=1;fillColor=#fff2cc;strokeColor=#d6b656;" vertex="1" parent="1">
          <mxGeometry x="410" y="190" width="120" height="60" as="geometry" />
        </mxCell>
        <mxCell id="j5zyZETpQFfi42s4NJHR-15" value="Visualization" style="rounded=1;whiteSpace=wrap;html=1;fillColor=#f8cecc;strokeColor=#b85450;" vertex="1" parent="1">
          <mxGeometry x="540" y="190" width="120" height="60" as="geometry" />
        </mxCell>
        <mxCell id="j5zyZETpQFfi42s4NJHR-16" value="Environment" style="rounded=1;whiteSpace=wrap;html=1;fillColor=#e1d5e7;strokeColor=#9673a6;" vertex="1" parent="1">
          <mxGeometry x="670" y="190" width="120" height="60" as="geometry" />
        </mxCell>
      </root>
    </mxGraphModel>
  </diagram>
</mxfile>
